<svg version="1.2" xmlns="http://www.w3.org/2000/svg" viewBox="0 0 1280 298" width="345" height="80">
	<style>
		.s0 { fill: #2c2e35 } 
		.s1 { fill: #ff2e4b } 
	</style>
	<g id="Folder 1 copy">
		<path id="Object 2" fill-rule="evenodd" class="s0" d="m405.33 76.51v20.17h-46.38v59.32h-20.49v-59.32h-46.28v-20.17zm122.54-0.33v20.5h-91.48v9.27h91.48v20.6h-91.48v8.63h91.48v21.14h-83.71q-5.5 0-10.57-1.89-5.07-1.89-8.95-5.28-3.89-3.4-6.2-8.09-2.32-4.69-2.32-10.41v-28.91q0-6.04 2.21-10.78 2.21-4.75 6.04-8.04 3.83-3.29 8.95-5.01 5.13-1.73 11.06-1.73zm88.02 40.23l34.51 39.59h-24.7l-22.33-23.52q-2.58-2.69-4.15-4.47-1.56-1.78-2.53-3.02-0.97-1.24-1.46-2.11-0.48-0.86-0.92-1.83-0.32 1.19-1.18 2.64-0.87 1.46-1.89 2.81-1.02 1.34-2.05 2.53-1.02 1.19-1.67 1.94l-20.82 25.03h-26.54l34.31-39.91-35.81-39.69h26.85l22.66 26.53q1.61 1.94 2.53 3.02 0.92 1.08 1.51 1.89 0.59 0.81 1.02 1.62 0.44 0.8 1.08 2.21 0.33-1.41 1.41-3.02 1.07-1.62 2.37-3.24 1.29-1.62 2.59-2.97 1.29-1.34 2.05-2.21l20.92-23.83h26.21zm65.48-10.79h73.46v-29.23h20.17v79.6h-20.17v-30.09h-73.46v30.09h-20.17v-79.6h20.17zm191.46-28.9q4.97 0 9.5 2.1 4.53 2.11 7.98 5.56 3.45 3.45 5.5 8.09 2.05 4.63 2.05 9.59v29.45q0 4.96-2.1 9.33-2.11 4.37-5.61 7.66-3.51 3.28-8.09 5.23-4.59 1.94-9.55 1.94h-61.38q-5.39 0-10.03-1.89-4.64-1.89-8.03-5.28-3.4-3.4-5.34-8.04-1.95-4.64-1.95-10.14v-30.09q0-5.18 2.43-9.49 2.43-4.31 6.42-7.44 3.99-3.13 9.06-4.86 5.07-1.72 10.36-1.72zm-66.45 20.6v38.39h70.55v-38.39zm102.25 58.67v-59.75q0-4.1 1.51-7.71 1.51-3.62 4.1-6.26 2.59-2.64 6.15-4.2 3.56-1.57 7.66-1.57 3.88 0 7.17 1.35 3.29 1.35 5.99 3.67 2.7 2.32 4.75 5.44 2.04 3.13 3.45 6.69l18.01 44.33 19.74-46.7q2.48-6.8 7.5-10.79 5.01-3.99 12.13-3.99 4.53 0 8.2 1.84 3.67 1.83 6.26 4.9 2.59 3.08 3.99 7.07 1.4 3.99 1.4 8.3v57.38h-19.31v-58.46l-19.09 41.74q-2.16 4.75-3.99 8.2-1.84 3.45-4.05 5.82-2.21 2.38-5.12 3.51-2.91 1.13-7.33 1.13-3.89 0-7.02-1.56-3.12-1.56-5.71-4.15-2.59-2.59-4.64-5.99-2.05-3.4-3.67-7.06l-18.77-40.88v57.7zm128.8 0l30.95-59.86q2.37-4.53 4.59-8.2 2.21-3.66 4.8-6.25 2.59-2.59 5.87-3.94 3.3-1.35 7.72-1.35 4.31 0 7.44 1.35 3.13 1.35 5.56 3.94 2.42 2.59 4.58 6.36 2.16 3.78 4.75 8.63l30.95 59.32h-22l-11.97-20.81h-39.48l-11.01 20.81zm63-41.2l-9.39-16.93-9.49 16.93zm75.83 21.46h23.95v-59.64h21.57v59.64h24.7v-59.64h21.14v79.92h-112.18v-79.92h20.82z"/>
		<path id="Object 3" fill-rule="evenodd" class="s0" d="m310.35 249.36v-64.93h28.67v13.6h-17.09v11.74h6.47q5.41 0.01 8.44 2.02 3.03 2 4.82 6.48 1.8 4.5 1.8 10.93 0 5.32-1.46 10.36-1.44 5.06-4.94 7.43-3.52 2.37-7.1 2.37zm11.59-14.46h5.81q3.58 0 3.58-6 0-5.79-4.38-5.79h-5.01zm29.72-35.16h-8.2v-15.31h19.79v22.92h6.86q5.67 0.01 8.51 2.16 2.85 2.17 4.51 6.89 1.68 4.71 1.67 11.27 0.01 9.04-3.52 15.36-3.54 6.33-11.17 6.33h-18.45zm11.59 35.16h5.41q2.25 0.01 3.11-1.59 0.88-1.59 0.88-5.49 0-6.66-3.59-6.66h-5.81zm30.69 14.47h-9.54l12.3-64.94h12.67l12.07 64.94h-11.78l-7.78-46.15zm29.73 0v-64.94h24.74v15.32h-12.82v49.62zm49.18 0l-2.2-12.79h-10.41l-2.34 12.79h-9.68l12.02-64.94h12.61l12.16 64.94zm-10.59-26.97h6.31l-3.15-18.84zm38.43 3.38v23.6h-12.1v-64.94h16.6q6.2 0 9.44 2.37 3.23 2.39 5.12 7.29 1.9 4.89 1.9 10.98-0.01 9.28-3.87 14.99-3.88 5.71-10.34 5.71zm-0.18-13.95h3.99q5.27 0.01 5.26-6.46 0-6.09-4.86-6.09h-4.39zm46.95 12.76l10.91 1.09q-0.77 11.94-5.29 18.32-4.5 6.38-11.09 6.38-7.91 0-12.78-8.77-4.87-8.74-4.87-24.16 0-15.28 4.62-24.64 4.6-9.38 12.86-9.38 7.72 0 11.86 7.14 4.15 7.14 4.69 18.94l-11.14 0.99q0-6.5-1.49-9.42-1.5-2.9-3.52-2.89-5.63-0.01-5.63 18.93-0.01 10.6 1.46 14.41 1.46 3.82 4.12 3.81 4.72 0 5.29-10.75zm50.32 24.78h-13.07l-6.72-24.55-4.01 9.57v14.98h-11.25v-64.94h11.25v26.83l10.73-26.83h10.7l-9.82 23.75zm24.64 0l-2.2-12.8h-10.42l-2.33 12.8h-9.68l12.01-64.94h12.62l12.15 64.94zm-10.59-26.98h6.32l-3.16-18.83zm52.5 20.12v6.85h-11.58v-64.94h11.58v26.06q0 5.19-0.34 12.38 2.13-7.8 4.24-13.84l6.15-17.65v-6.95h11.59v64.94h-11.59v-25.84q0-5.55 0.31-12.32-1.7 6.57-4.24 13.8zm61.38-58.09v64.94h-11.92v-25.26h-9.12v25.26h-11.92v-64.94h11.92v23.89h9.12v-23.89zm6.41 50.47l8.77-50.47h14.24l8.59 50.47h4.28v28.13h-7.5l-0.96-13.66h-23.21l-0.99 13.66h-7.49v-28.13zm9.31 0h10.77l-4.76-35.53h-0.57zm38.51-5.6l-14.79-44.87h13.25l6.83 25.12 5.61-25.12h10.54l-11.45 47.34q-1.54 6.43-3.52 10.25-1.97 3.83-4.34 5.6-2.37 1.75-5.98 1.75h-6.01v-14.47h3.99q4.98 0 5.87-5.6zm43.47-4.71l10.9 1.09q-0.77 11.93-5.29 18.32-4.5 6.38-11.08 6.38-7.92 0-12.78-8.77-4.87-8.74-4.87-24.16-0.01-15.28 4.61-24.64 4.61-9.38 12.87-9.38 7.71 0 11.86 7.14 4.14 7.14 4.68 18.94l-11.14 0.99q0-6.5-1.48-9.42-1.51-2.9-3.52-2.89-5.64-0.01-5.64 18.93 0 10.6 1.47 14.41 1.46 3.82 4.11 3.81 4.73 0 5.3-10.75zm31.89-24.6v49.38h-11.31v-49.38h-8.05v-15.56h27.41v15.56zm23.55 25.79v23.59h-12.1v-64.94h16.6q6.2 0.01 9.44 2.37 3.23 2.39 5.12 7.29 1.89 4.9 1.89 10.98 0 9.29-3.87 14.99-3.87 5.72-10.34 5.72zm-0.17-13.95h3.98q5.28 0.01 5.27-6.47 0-6.08-4.87-6.09h-4.38zm37.15 30.7v6.85h-11.58v-64.94h11.58v26.06q0 5.19-0.34 12.38 2.14-7.8 4.24-13.84l6.15-17.65v-6.95h11.6v64.94h-11.6v-25.84q0.01-5.55 0.31-12.32-1.7 6.57-4.23 13.8zm49.85 6.85l-2.19-12.79h-10.42l-2.33 12.79h-9.68l12.01-64.94h12.61l12.16 64.94zm-10.59-26.97h6.32l-3.16-18.84zm33.28 26.98h-9.54l12.3-64.94h12.68l12.07 64.94h-11.79l-7.78-46.15zm62.7-64.94v64.94h-11.93v-25.27h-9.11v25.27h-11.93v-64.94h11.93v23.88h9.11v-23.88zm28.2 64.94l-2.2-12.8h-10.42l-2.33 12.8h-9.68l12.01-64.94h12.62l12.16 64.94zm-10.6-26.98h6.32l-3.16-18.83zm40.92 26.97v-64.94h24.74v15.31h-12.82v49.63zm39.84-23.59v23.59h-12.1v-64.94h16.6q6.19 0.01 9.43 2.37 3.24 2.39 5.13 7.29 1.89 4.9 1.89 10.98 0 9.29-3.87 14.99-3.88 5.72-10.34 5.72zm-0.17-13.95h3.98q5.27 0 5.27-6.47 0-6.09-4.87-6.09h-4.38zm35.19 17.48l-14.78-44.87h13.24l6.83 25.12 5.61-25.12h10.54l-11.45 47.34q-1.53 6.42-3.52 10.24-1.97 3.84-4.33 5.6-2.38 1.76-5.99 1.76h-6.01v-14.47h3.99q4.98 0 5.87-5.6zm23.09 20.07v-64.94h32.14v64.94h-11.59v-51.01h-8.97v51.01zm60.34 0l-2.2-12.8h-10.42l-2.33 12.8h-9.68l12.01-64.94h12.62l12.15 64.94zm-10.59-26.97h6.32l-3.16-18.84z"/>
		<path id="Object 4" class="s1" d="m144.96 153.46l70.88 70.88-69.57 69.56-70.89-70.87z"/>
		<path id="Object 5" fill-rule="evenodd" class="s1" d="m144.98 150.83l72.51 72.5-70.65 71.09-72.51-72.51zm-68.07 71.34l69.23 69.23 68.07-68.06-69.23-69.23z"/>
		<path id="Object 6" class="s1" d="m71.33 79.98l70.88 70.88-69.57 69.56-70.88-70.88z"/>
		<path id="Object 7" fill-rule="evenodd" class="s1" d="m71.35 77.35l72.52 72.5-71.36 71.35-72.51-72.51zm-68.07 71.35l69.23 69.22 68.07-68.06-69.23-69.23z"/>
		<path id="Object 8" class="s1" d="m143.78 7.64l70.89 70.87-69.57 69.56-70.89-70.87z"/>
		<path id="Object 9" fill-rule="evenodd" class="s1" d="m143.8 5l72.52 72.51-71.36 71.34-72.51-72.51zm-68.07 71.35l69.23 69.22 68.07-68.06-69.23-69.22z"/>
		<path id="Object 10" fill-rule="evenodd" class="s1" d="m248.53 78.8l54.24 87.03-85.64 53.36-54.24-87.02zm-82.44 54.1l51.78 83.09 81.7-50.91-51.78-83.09z"/>
	</g>
</svg>